<?xml version="1.0" encoding="UTF-8"?>
<!DOCTYPE svg PUBLIC "-//W3C//DTD SVG 1.1//EN" "http://www.w3.org/Graphics/SVG/1.1/DTD/svg11.dtd">
<!-- Creator: CorelDRAW X8 -->
<svg xmlns="http://www.w3.org/2000/svg" xml:space="preserve" width="329.668mm" height="301.418mm" version="1.1" style="shape-rendering:geometricPrecision; text-rendering:geometricPrecision; image-rendering:optimizeQuality; fill-rule:evenodd; clip-rule:evenodd"
viewBox="0 0 4777 4368"
 xmlns:xlink="http://www.w3.org/1999/xlink">
 <defs>
  <style type="text/css">
   <![CDATA[
    .fil5 {fill:#FEFEFE;fill-rule:nonzero}
    .fil7 {fill:#F58E82;fill-rule:nonzero}
    .fil15 {fill:#F15F5C;fill-rule:nonzero}
    .fil2 {fill:#F9F8F8;fill-rule:nonzero}
    .fil3 {fill:#F3F4F4;fill-rule:nonzero}
    .fil17 {fill:#F1F5FB;fill-rule:nonzero}
    .fil4 {fill:#F1F1F0;fill-rule:nonzero}
    .fil13 {fill:#E9746A;fill-rule:nonzero}
    .fil20 {fill:#EEF2FA;fill-rule:nonzero}
    .fil18 {fill:#ECF2FA;fill-rule:nonzero}
    .fil29 {fill:#EDEDEB;fill-rule:nonzero}
    .fil0 {fill:#E8E7E8;fill-rule:nonzero}
    .fil21 {fill:#E1E7EF;fill-rule:nonzero}
    .fil11 {fill:#DFE5EB;fill-rule:nonzero}
    .fil1 {fill:#E0E1E2;fill-rule:nonzero}
    .fil19 {fill:#D6DCE5;fill-rule:nonzero}
    .fil14 {fill:#CECFCF;fill-rule:nonzero}
    .fil16 {fill:#A5C1E5;fill-rule:nonzero}
    .fil22 {fill:#9FBCE2;fill-rule:nonzero}
    .fil26 {fill:#9A9B9A;fill-rule:nonzero}
    .fil28 {fill:#8BAFDC;fill-rule:nonzero}
    .fil30 {fill:#7AA0D3;fill-rule:nonzero}
    .fil23 {fill:#719BD1;fill-rule:nonzero}
    .fil24 {fill:#5483C2;fill-rule:nonzero}
    .fil8 {fill:#4B7ABC;fill-rule:nonzero}
    .fil12 {fill:#313F44;fill-rule:nonzero}
    .fil9 {fill:#3B6BB2;fill-rule:nonzero}
    .fil6 {fill:#3B6BB2;fill-rule:nonzero}
    .fil10 {fill:#2659A4;fill-rule:nonzero}
    .fil27 {fill:#2A3248;fill-rule:nonzero}
    .fil25 {fill:#34426C;fill-rule:nonzero}
   ]]>
  </style>
 </defs>
 <g id="Layer_x0020_1">
  <metadata id="CorelCorpID_0Corel-Layer"/>
  <polygon class="fil0" points="3147,4117 2618,4117 2618,4114 3147,4114 "/>
  <polygon class="fil1" points="2349,3837 2618,3837 2618,2770 2349,2770 "/>
  <polygon class="fil2" points="2567,3837 2618,3837 2618,3692 2513,3692 "/>
  <polygon class="fil1" points="1170,3837 1439,3837 1439,2770 1170,2770 "/>
  <polygon class="fil2" points="1394,3748 2618,3748 2618,2770 1394,2770 "/>
  <path class="fil1" d="M2578 2813l-1144 0 0 269 1144 0 0 -269zm-5 5l0 259 -1134 0 0 -259 1134 0z"/>
  <polygon class="fil2" points="1445,3837 1394,3837 1394,3692 1499,3692 "/>
  <path class="fil0" d="M1979 2948c0,14 12,27 27,27 15,0 27,-13 27,-27 0,-15 -12,-28 -27,-28 -15,0 -27,13 -27,28z"/>
  <path class="fil1" d="M2578 3125l-1144 0 0 268 1144 0 0 -268zm-5 5l0 259 -1134 0 0 -259 1134 0z"/>
  <path class="fil0" d="M1979 3259c0,15 12,27 27,27 15,0 27,-12 27,-27 0,-15 -12,-27 -27,-27 -15,0 -27,12 -27,27z"/>
  <path class="fil1" d="M2578 3437l-1144 0 0 268 1144 0 0 -268zm-5 4l0 259 -1134 0 0 -259 1134 0z"/>
  <path class="fil0" d="M1979 3571c0,15 12,27 27,27 15,0 27,-12 27,-27 0,-15 -12,-27 -27,-27 -15,0 -27,12 -27,27z"/>
  <polygon class="fil1" points="1005,3837 1275,3837 1275,2150 1005,2150 "/>
  <polygon class="fil2" points="1223,3837 1275,3837 1275,3692 1170,3692 "/>
  <polygon class="fil1" points="269,3837 0,3837 0,2150 269,2150 "/>
  <polygon class="fil2" points="224,3748 1275,3748 1275,2150 224,2150 "/>
  <path class="fil1" d="M1235 2190l-971 0 0 373 971 0 0 -373zm-6 5l0 362 -959 0 0 -362 959 0z"/>
  <path class="fil1" d="M1235 2596l-468 0 0 971 468 0 0 -971zm-6 5l0 960 -457 0 0 -960 457 0z"/>
  <path class="fil1" d="M732 2596l-468 0 0 971 468 0 0 -971zm-5 5l0 960 -457 0 0 -960 457 0z"/>
  <polygon class="fil2" points="276,3837 224,3837 224,3692 329,3692 "/>
  <path class="fil0" d="M722 2376c0,15 13,27 27,27 15,0 28,-12 28,-27 0,-15 -13,-27 -28,-27 -14,0 -27,12 -27,27z"/>
  <path class="fil0" d="M819 3058c0,15 12,27 27,27 15,0 27,-12 27,-27 0,-15 -12,-27 -27,-27 -15,0 -27,12 -27,27z"/>
  <path class="fil0" d="M626 3058c0,15 12,27 27,27 15,0 27,-12 27,-27 0,-15 -12,-27 -27,-27 -15,0 -27,12 -27,27z"/>
  <path class="fil1" d="M595 1680l-113 0c0,0 19,105 19,166 0,62 -86,304 37,304 124,0 37,-242 37,-304 0,-61 20,-166 20,-166z"/>
  <path class="fil3" d="M164 1928l0 74c0,81 66,148 148,148l74 0c81,0 148,-67 148,-148l0 -74 -370 0z"/>
  <path class="fil1" d="M1740 2615c0,85 96,155 213,155l106 0c117,0 213,-70 213,-155l-532 0z"/>
  <path class="fil1" d="M4541 2489c-64,53 -152,148 -233,283 -54,90 -87,184 -101,308 0,-140 0,-291 1,-434 16,-37 53,-121 80,-188 89,-223 122,-278 202,-471 107,-256 217,-561 185,-536 -64,49 -308,507 -335,573 -91,226 -116,390 -132,549 1,-134 1,-257 2,-352 1,-310 7,-410 9,-441 10,-15 22,-33 29,-43 57,-83 79,-154 133,-278 77,-176 143,-488 124,-472 -81,66 -144,206 -227,386 -84,179 -60,282 -76,436 -4,30 -7,143 -9,300 -21,-167 -62,-278 -136,-378 -91,-123 -179,-207 -244,-250 -64,-44 112,259 196,392 75,118 145,222 184,324 -3,213 -3,483 -4,734 -19,-114 -50,-237 -93,-333 -50,-114 -128,-290 -190,-349 -15,-15 65,327 116,418 51,91 89,176 121,228 7,12 32,58 47,85 0,307 1,577 4,669l13 0c-1,-23 -1,-179 -1,-386 32,-112 105,-240 165,-357 66,-127 234,-469 170,-417z"/>
  <polygon class="fil4" points="4392,3837 4009,3837 3980,3461 4421,3461 "/>
  <polygon class="fil3" points="4450,3505 3951,3505 3937,3378 4464,3378 "/>
  <polygon class="fil1" points="866,813 181,813 181,60 866,60 "/>
  <polygon class="fil3" points="941,813 232,813 232,60 941,60 "/>
  <polygon class="fil5" points="292,754 292,120 881,120 881,754 "/>
  <polygon class="fil6" points="435,600 435,273 738,273 738,600 "/>
  <polygon class="fil1" points="4363,848 3726,848 3726,148 4363,148 "/>
  <polygon class="fil3" points="4432,848 3774,848 3774,148 4432,148 "/>
  <polygon class="fil5" points="3829,793 3829,203 4377,203 4377,793 "/>
  <path class="fil6" d="M4274 498c0,94 -77,171 -171,171 -94,0 -171,-77 -171,-171 0,-95 77,-171 171,-171 94,0 171,76 171,171z"/>
  <polygon class="fil1" points="1579,1068 1070,1068 1070,509 1579,509 "/>
  <polygon class="fil3" points="1634,1068 1109,1068 1109,509 1634,509 "/>
  <polygon class="fil5" points="1153,1024 1153,553 1590,553 1590,1024 "/>
  <polygon class="fil6" points="1371,670 1252,877 1491,877 "/>
  <path class="fil3" d="M4777 4229c0,77 -1062,139 -2372,139 -1310,0 -2372,-62 -2372,-139 0,-76 1062,-138 2372,-138 1310,0 2372,62 2372,138z"/>
  <path class="fil7" d="M3619 1136l-121 -49c0,0 -160,292 -206,307 -63,20 -192,76 -268,86 -11,12 -28,50 -26,64 103,35 329,-11 377,-47 111,-82 244,-361 244,-361z"/>
  <path class="fil8" d="M3657 1070c22,84 -100,252 -100,252l-161 -91c0,0 30,-69 66,-139 60,-114 169,-118 195,-22z"/>
  <path class="fil9" d="M3487 1283l-91 -52c0,0 30,-69 66,-139 25,-47 57,-75 89,-85 0,0 -19,43 -38,125 -26,38 -44,99 -53,135l27 16c0,0 0,0 0,0zm64 -276c4,-2 9,-3 13,-4 -8,2 -13,4 -13,4z"/>
  <path class="fil10" d="M3487 1283l-27 -16c9,-36 27,-97 53,-135 -10,41 -19,91 -26,151z"/>
  <path class="fil8" d="M3551 1007c0,0 -125,278 -52,796 148,0 420,0 492,0 8,-76 -18,-445 76,-801 0,0 -83,-17 -164,-21 -62,-3 -153,-5 -209,0 -73,7 -143,26 -143,26z"/>
  <path class="fil9" d="M3991 1803c-72,0 -344,0 -492,0 -4,-25 -7,-49 -9,-72l366 -119c57,-17 107,-53 141,-102 1,-22 2,-45 4,-69 -12,179 -5,319 -10,362zm-508 -140c-5,-62 -7,-120 -7,-173 0,-316 75,-483 75,-483 0,0 70,-19 143,-26 25,-2 56,-3 89,-3 41,0 85,2 120,3 72,4 146,18 161,21 -4,-1 -9,-2 -14,-2 -39,0 -80,27 -107,85 -49,106 -74,185 -74,185l0 0 0 0 32 13c-32,66 -64,124 -83,133 -60,27 -212,122 -276,167 -2,9 -2,25 0,39l-59 41 0 0z"/>
  <path class="fil11" d="M3854 4264c-231,0 -418,-11 -417,-24 0,-13 188,-23 420,-23 231,0 418,10 417,23 -1,13 -189,24 -420,24z"/>
  <polygon class="fil7" points="3853,4105 3765,4139 3690,3944 3777,3910 "/>
  <polygon class="fil7" points="4155,4146 4063,4146 4029,3933 4121,3933 "/>
  <path class="fil12" d="M4057 4136l104 0c3,0 6,2 7,6l13 82c2,8 -5,16 -14,16 -36,0 -54,-3 -99,-3 -28,0 -86,3 -125,3 -37,0 -41,-38 -25,-41 72,-16 100,-37 124,-58 4,-3 10,-5 15,-5z"/>
  <path class="fil12" d="M3750 4103l99 -28c3,-1 7,0 9,4l36 73c4,8 -1,17 -9,19 -36,10 -60,16 -104,29 -31,9 -62,24 -93,33 -21,7 -70,7 -96,7 -37,0 -46,-40 -30,-41 41,-5 47,-3 70,-14 37,-19 66,-35 98,-69 6,-5 13,-10 20,-13z"/>
  <path class="fil7" d="M3039 1479l-101 -42 -42 112c0,0 58,10 125,0l18 -70z"/>
  <polygon class="fil7" points="2862,1434 2860,1509 2896,1549 2938,1437 "/>
  <polygon class="fil13" points="3690,3944 3728,4044 3816,4011 3777,3910 "/>
  <polygon class="fil13" points="4121,3933 4029,3933 4047,4043 4139,4043 "/>
  <path class="fil14" d="M3490 1731c-3,-23 -5,-46 -7,-68l0 0c2,22 4,45 7,68l0 0zm511 -290c1,-21 2,-43 4,-65 0,0 0,0 0,0 0,11 -1,21 -2,31 -1,11 -2,23 -2,34z"/>
  <path class="fil10" d="M3490 1731c-3,-23 -5,-46 -7,-68l59 -41c1,12 4,23 7,28 110,-20 321,-101 365,-142 32,-30 63,-79 91,-132 -2,22 -3,44 -4,65 -2,24 -3,47 -4,69 -34,49 -84,85 -141,102l-366 119z"/>
  <path class="fil5" d="M3603 1262l-13 -2c8,-61 53,-109 101,-108l0 13c-42,-2 -82,42 -88,97z"/>
  <path class="fil5" d="M3668 1375l-2 0 0 -13c42,2 82,-42 88,-97l13 1c-7,61 -51,109 -99,109z"/>
  <path class="fil7" d="M3897 745c-18,68 -38,191 6,236 0,0 -31,69 -156,69 -114,0 -53,-69 -53,-69 76,-18 78,-73 68,-126l135 -110z"/>
  <path class="fil13" d="M3842 790l-80 65c2,13 4,25 4,37 23,24 70,-35 75,-65 2,-15 3,-30 1,-37z"/>
  <path class="fil13" d="M3624 745c12,21 33,34 52,38 30,7 44,-21 36,-48 -7,-24 -31,-57 -61,-51 -29,5 -40,37 -27,61z"/>
  <path class="fil12" d="M3673 529c-46,21 -62,203 -5,230 58,26 91,-270 5,-230z"/>
  <path class="fil7" d="M3911 644c-11,91 -13,145 -62,192 -73,70 -184,28 -200,-63 -15,-82 5,-217 97,-253 90,-36 175,33 165,124z"/>
  <path class="fil12" d="M3760 576c68,-17 118,-29 100,28 -24,75 -52,148 -14,151 23,2 126,-41 113,-85 -12,-39 36,-49 45,-69 32,-70 -59,-61 -43,-104 16,-41 -73,-112 -122,-77 -79,55 -216,54 -144,-37 51,-65 -41,-52 -41,-52 0,0 56,33 -38,84 -99,54 -8,200 144,161z"/>
  <path class="fil7" d="M3946 745c-14,21 -37,34 -57,38 -30,7 -41,-21 -30,-48 10,-24 38,-57 67,-51 28,5 36,37 20,61z"/>
  <path class="fil8" d="M3499 1803c0,0 -83,740 -89,1021 -7,292 280,1204 280,1204l147 -62c0,0 -171,-833 -148,-1120 26,-312 134,-1043 134,-1043l-324 0z"/>
  <path class="fil9" d="M3718 2574c-33,-152 -75,-403 -23,-545 11,117 26,265 41,403 -6,48 -12,96 -18,142z"/>
  <polygon class="fil8" points="3830,3918 3848,3965 3678,4036 3652,3987 "/>
  <path class="fil8" d="M3674 1803c0,0 63,704 105,968 46,289 226,1251 226,1251l169 0c0,0 -101,-939 -120,-1225 -21,-310 -63,-994 -63,-994l-317 0z"/>
  <polygon class="fil8" points="4176,3978 4182,4025 3996,4025 3983,3971 "/>
  <path class="fil9" d="M4112 3922l-2 -1c-1,-9 -92,-857 -109,-1113 -19,-279 -56,-897 -57,-904l2 -1 0 0 2 1c0,6 37,625 56,903 17,257 108,1105 109,1113l-1 2 0 0z"/>
  <path class="fil12" d="M3771 670c-1,7 -5,13 -10,13 -5,0 -8,-6 -8,-13 0,-8 5,-14 10,-14 4,0 8,6 8,14z"/>
  <path class="fil12" d="M3687 670c-1,7 -5,13 -10,13 -5,0 -8,-6 -8,-13 0,-8 5,-14 10,-14 5,0 8,6 8,14z"/>
  <path class="fil15" d="M3713 673c0,0 -19,43 -39,64 12,12 35,6 35,6l4 -70z"/>
  <path class="fil12" d="M3715 775c-1,0 -2,-1 -2,-3 0,-1 1,-2 3,-2 32,0 49,-23 49,-23l3 0 0 3c0,1 -18,25 -53,25z"/>
  <path class="fil12" d="M3786 647c-2,0 -3,0 -4,0 -16,-10 -31,-4 -31,-4 -3,1 -5,0 -6,-2 -1,-2 0,-4 2,-6 1,0 20,-8 40,4 2,1 2,4 1,6l-2 2z"/>
  <path class="fil12" d="M3654 623l-1 -1c-2,-2 -2,-5 0,-7 17,-18 36,-15 37,-15 3,1 4,3 4,5 -1,3 -3,4 -6,4 0,0 -16,-2 -29,12 -2,2 -3,2 -5,2z"/>
  <path class="fil7" d="M4114 1123l-127 -34c0,0 -125,307 -169,327 -60,27 -212,122 -276,167 -4,15 -1,56 7,67 110,-20 321,-101 365,-142 101,-95 200,-385 200,-385z"/>
  <path class="fil8" d="M4013 4133c-1,0 -2,0 -3,0 0,0 -1,1 -1,3 -1,3 0,6 2,8 5,4 17,4 33,1 -10,-6 -24,-12 -31,-12zm13 19c-7,0 -14,-2 -18,-5 -3,-3 -4,-7 -4,-12 1,-3 3,-5 4,-6 11,-5 40,13 43,15l1 3 -2 1c-6,2 -16,4 -24,4z"/>
  <path class="fil8" d="M4033 4111l-1 0c-3,0 -3,2 -3,2 -2,6 9,22 18,29 0,-8 -2,-23 -9,-29 -2,-1 -3,-2 -5,-2zm16 37l-1 0c-9,-5 -26,-25 -23,-35 0,-2 2,-6 7,-6 3,-1 6,0 9,3 10,8 11,35 11,36l-1 2 -2 0z"/>
  <path class="fil8" d="M3681 4122c-2,0 -3,1 -4,2 -1,0 -1,1 -1,2 0,3 2,5 4,6 6,4 22,1 41,-7 -14,-3 -31,-5 -40,-3zm20 14c-9,3 -18,3 -23,0 -4,-2 -6,-5 -6,-9 -1,-3 0,-5 2,-7 10,-8 50,1 55,2l1 2 -1 2c-8,4 -18,8 -28,10z"/>
  <path class="fil8" d="M3699 4096l-1 0c-4,1 -4,3 -4,3 1,7 18,18 31,22 -3,-7 -9,-20 -18,-24 -2,-2 -5,-2 -8,-1zm29 30l-1 0c-11,-2 -37,-16 -37,-26 0,-3 1,-6 7,-8 4,-2 8,-1 12,1 14,6 21,30 21,31l-1 2 -1 0z"/>
  <path class="fil7" d="M3552 1576l-127 59 -15 36 47 31c0,0 88,-9 113,-66l-18 -60z"/>
  <path class="fil12" d="M3558 1652c-8,-47 -24,-69 -24,-69l20 -15c1,1 19,26 29,80l-25 4z"/>
  <path class="fil12" d="M3579 1593c5,10 -2,23 -14,28 -13,5 -26,1 -30,-10 -4,-10 2,-22 15,-27 12,-5 25,-1 29,9z"/>
  <polygon class="fil7" points="3338,1682 3355,1699 3470,1650 3425,1635 "/>
  <polygon class="fil9" points="3678,4036 3652,3987 3830,3918 3848,3965 3805,3983 3719,4019 3719,4019 "/>
  <polygon class="fil9" points="4182,4025 3996,4025 3983,3971 4176,3978 "/>
  <path class="fil8" d="M4148 1087c33,109 -98,257 -98,257l-181 -74c0,0 25,-79 74,-185 55,-120 171,-107 205,2z"/>
  <path class="fil9" d="M4050 1344l-23 -10 -126 -51 -32 -13c0,0 25,-79 74,-185 27,-58 68,-85 107,-85 41,0 80,31 98,87 4,13 5,26 5,39 0,102 -103,218 -103,218z"/>
  <polygon class="fil8" points="2342,13 2264,13 2264,0 2342,0 "/>
  <polygon class="fil8" points="3357,709 3345,709 3354,499 3367,499 "/>
  <polygon class="fil8" points="3330,57 1886,57 1752,3063 3196,3063 "/>
  <path class="fil5" d="M3153 3104l-42 0 2 -41 41 0 -1 41zm-1270 -2965l-42 0 2 -41 41 0 -1 41z"/>
  <polygon class="fil16" points="3154,3063 3113,3063 3244,139 1883,139 1884,98 3287,98 "/>
  <polygon class="fil17" points="3109,3145 2618,3145 2618,3104 3111,3104 "/>
  <path class="fil18" d="M2618 3145l-40 0 0 -20 -891 0c6,-15 11,-29 16,-43l7 0 -1 22 909 0 0 41zm-45 0l-895 0c2,-5 4,-10 7,-15l888 0 0 15zm-863 -68l-5 0c2,-7 4,-13 6,-19l-1 19z"/>
  <path class="fil19" d="M1710 3082l-7 0c1,-2 1,-3 2,-5l5 0 0 5z"/>
  <path class="fil19" d="M2578 3145l-5 0 0 -15 -888 0c0,-2 1,-3 2,-5l891 0 0 20z"/>
  <path class="fil17" d="M1724 2770l-36 0c-2,-4 -3,-9 -5,-14l117 -2617 41 0 -117 2631z"/>
  <path class="fil18" d="M1719 2881c-4,-21 -9,-42 -15,-63l18 0 -3 63zm3 -68l-20 0c-4,-14 -9,-28 -14,-43l36 0 -2 43z"/>
  <path class="fil19" d="M1722 2818l-18 0c-1,-1 -1,-3 -2,-5l20 0 0 5z"/>
  <path class="fil20" d="M3111 3104l-493 0 0 -41 495 0 -2 41zm-1346 -334l-41 0 117 -2631 42 0 -111 2476 -32 0c0,28 10,54 29,77l-4 78z"/>
  <path class="fil18" d="M2618 3104l-909 0 1 -22 868 0 0 -19 40 0 0 41zm-45 -27l-863 0 1 -19c10,-36 16,-69 16,-99 0,-3 0,-5 0,-8 -1,-22 -3,-46 -8,-70l3 -63 41 0 -11 245 821 0 0 14zm-810 -264l-41 0 2 -43 41 0 -2 43z"/>
  <path class="fil21" d="M2578 3082l-868 0 0 -5 863 0 0 -14 5 0 0 19zm-815 -264l-41 0 0 -5 41 0 0 5z"/>
  <path class="fil21" d="M1769 2692c-19,-23 -29,-49 -29,-77l32 0 -3 77z"/>
  <path class="fil22" d="M3113 3063l-1361 0 11 -245 0 -5 2 -43 4 -78 3 -77 111 -2476 1361 0 -131 2924zm-1116 -451l-12 276 828 0 13 -276 -829 0zm238 -1721l0 0c53,79 143,130 248,130 104,0 198,-51 259,-130l0 0 0 0 0 0 0 0c40,-51 65,-115 68,-184 8,-173 -126,-313 -299,-313 -173,0 -320,140 -328,313 -3,69 16,133 52,184l0 0 0 0 0 0z"/>
  <polygon class="fil5" points="3080,1450 1847,1450 1837,1680 3069,1680 "/>
  <polygon class="fil8" points="2525,1282 1855,1282 1850,1385 2520,1385 "/>
  <polygon class="fil5" points="3052,2071 1819,2071 1809,2301 3041,2301 "/>
  <polygon class="fil23" points="2813,2888 1985,2888 1997,2612 2826,2612 "/>
  <path class="fil5" d="M1943 2927l826 0 12 -273 -826 0 -12 273zm827 3l-828 0 -1 0 -1 -1 13 -276 1 -1 829 0 1 0 0 1 -12 276 -2 1z"/>
  <polygon class="fil8" points="2380,1903 1827,1903 1822,2006 2376,2006 "/>
  <path class="fil5" d="M2810 707c-3,69 -28,133 -68,184 -61,79 -155,130 -259,130 -105,0 -195,-51 -248,-130 -36,-51 -55,-115 -52,-184 8,-173 155,-313 328,-313 173,0 307,140 299,313z"/>
  <path class="fil8" d="M2839 459c0,19 -7,36 -18,49 -16,21 -41,35 -69,35 -27,0 -51,-14 -65,-35 -10,-13 -15,-30 -14,-49 2,-46 41,-83 87,-83 46,0 82,37 79,83z"/>
  <path class="fil12" d="M1980 1565c-1,21 -18,37 -39,37 -20,0 -36,-16 -35,-37 1,-20 18,-37 39,-37 20,0 36,17 35,37z"/>
  <path class="fil12" d="M2145 1565c-1,21 -18,37 -39,37 -20,0 -36,-16 -35,-37 1,-20 18,-37 39,-37 20,0 36,17 35,37z"/>
  <path class="fil12" d="M2310 1565c-1,21 -18,37 -39,37 -20,0 -36,-16 -35,-37 1,-20 18,-37 39,-37 20,0 36,17 35,37z"/>
  <path class="fil12" d="M1952 2186c-1,21 -18,37 -38,37 -21,0 -36,-16 -36,-37 1,-20 19,-37 39,-37 20,0 36,17 35,37z"/>
  <path class="fil12" d="M2117 2186c-1,21 -18,37 -38,37 -21,0 -36,-16 -36,-37 1,-20 19,-37 39,-37 20,0 36,17 35,37z"/>
  <path class="fil12" d="M2282 2186c-1,21 -18,37 -38,37 -21,0 -36,-16 -36,-37 1,-20 19,-37 39,-37 20,0 36,17 35,37z"/>
  <path class="fil12" d="M2447 2186c-1,21 -18,37 -38,37 -21,0 -36,-16 -36,-37 1,-20 19,-37 39,-37 20,0 36,17 35,37z"/>
  <path class="fil12" d="M2612 2186c-1,21 -18,37 -38,37 -21,0 -36,-16 -35,-37 0,-20 18,-37 38,-37 20,0 36,17 35,37z"/>
  <path class="fil8" d="M2628 603c-3,70 -62,126 -132,126 -70,0 -125,-56 -121,-126 3,-70 62,-127 132,-127 70,0 124,57 121,127z"/>
  <path class="fil8" d="M2742 891c-61,79 -155,130 -259,130 -105,0 -195,-51 -248,-130 59,-59 153,-97 258,-97 104,0 195,38 249,97z"/>
  <path class="fil24" d="M2496 729c-68,0 -122,-53 -122,-121 0,-2 0,-4 1,-5 3,-70 62,-127 132,-127 68,0 121,53 121,121 0,2 0,4 0,6 -3,70 -62,126 -132,126z"/>
  <path class="fil24" d="M2483 1021c-105,0 -195,-51 -248,-130 59,-59 153,-97 258,-97 104,0 195,38 249,97 -61,79 -155,130 -259,130z"/>
  <path class="fil7" d="M942 1736c-12,25 -24,53 -35,80 -11,28 -21,56 -31,83 -18,56 -35,113 -43,169l-3 18c0,3 0,6 1,9 1,8 6,19 13,29 14,20 33,41 54,61 21,19 44,38 68,56 23,18 48,36 72,53l-22 42c-59,-25 -113,-55 -165,-94 -26,-19 -52,-40 -74,-69 -11,-14 -22,-31 -29,-52 -4,-11 -6,-23 -6,-36 0,-3 0,-8 0,-10l1 -6 1 -12c7,-65 21,-127 40,-188 9,-30 20,-60 31,-89 12,-30 24,-58 39,-88l88 44z"/>
  <path class="fil7" d="M1021 2286l87 -44 -23 95c0,0 -59,17 -87,-12l23 -39z"/>
  <polygon class="fil7" points="1187,2258 1164,2337 1085,2337 1108,2242 "/>
  <path class="fil15" d="M1309 1278c0,0 8,27 19,48 -10,10 -19,6 -19,6l0 -54z"/>
  <path class="fil12" d="M1297 1264c0,8 4,14 10,14 5,0 9,-6 9,-14 0,-7 -4,-14 -9,-14 -6,0 -10,7 -10,14z"/>
  <path class="fil12" d="M1304 1251l19 -6c0,0 -10,15 -19,6z"/>
  <path class="fil7" d="M1070 1367c11,57 22,162 -17,200 0,0 15,58 121,58 116,0 56,-58 56,-58 -64,-15 -62,-63 -51,-107l-109 -93z"/>
  <path class="fil7" d="M1039 1238c6,95 6,135 54,184 73,74 188,46 211,-49 20,-86 7,-227 -86,-265 -91,-37 -185,35 -179,130z"/>
  <path class="fil12" d="M1049 1130c-48,18 -112,5 -87,152 27,156 -14,207 -14,207 0,0 181,39 366,-2 0,0 -57,-99 -41,-171 20,-92 4,-126 4,-126 0,0 -161,-84 -228,-60z"/>
  <path class="fil7" d="M1250 1287c0,19 7,38 15,51 13,20 29,12 32,-8 4,-19 1,-52 -15,-64 -16,-13 -31,0 -32,21z"/>
  <path class="fil12" d="M1007 1147c-14,-39 52,-98 190,-73 138,24 144,139 144,139l-28 -33 2 35 -143 27 -165 -95z"/>
  <path class="fil8" d="M1019 1573c-2,-12 6,-23 18,-25 43,-7 140,-21 190,-14 36,5 46,26 48,44 1,13 -10,24 -23,23l-213 -10c-10,0 -19,-8 -20,-18z"/>
  <path class="fil25" d="M1274 1572c-15,-2 -30,-4 -44,-5 -26,-3 -51,-3 -76,-3 -32,0 -65,1 -101,3 -12,0 -23,1 -34,2 0,-10 7,-19 18,-21 35,-5 106,-16 158,-16 12,0 23,1 32,2 32,4 43,22 47,38z"/>
  <polygon class="fil7" points="1142,3711 1221,3765 1353,3587 1274,3532 "/>
  <polygon class="fil7" points="958,3707 1041,3755 1158,3565 1075,3518 "/>
  <polygon class="fil13" points="1353,3587 1285,3679 1206,3624 1274,3532 "/>
  <polygon class="fil13" points="1075,3518 1158,3565 1098,3663 1014,3615 "/>
  <path class="fil8" d="M1208 2171c0,0 308,388 251,759 -47,300 -317,706 -317,706l-128 -63c0,0 139,-270 229,-556 38,-120 22,-252 -49,-356 -156,-228 -406,-92 -238,-490l252 0z"/>
  <path class="fil25" d="M1142 3636l-21 -10 -81 -40 0 -64c44,-92 136,-294 203,-505 14,-42 20,-85 20,-128 0,-49 -8,-97 -25,-142 27,-7 48,-32 48,-61l0 -130c0,-7 -2,-14 -4,-21 26,36 52,74 76,111 25,158 55,341 68,419 5,-17 11,-35 15,-52 -1,3 -2,6 -2,9 -2,5 -3,11 -5,17 -11,38 -25,77 -40,116 -47,120 -108,238 -159,328 -2,3 -4,6 -6,9 -14,26 -28,49 -40,69 -1,2 -2,4 -3,6 -27,43 -44,69 -44,69zm119 -1130c-11,-8 -24,-13 -39,-13l-249 0c-43,-26 -73,-56 -73,-119 0,-43 15,-102 49,-186l52 0c40,45 152,172 260,318z"/>
  <path class="fil26" d="M1441 3013c7,-28 13,-56 18,-83 4,-29 6,-59 7,-89 0,0 0,0 0,0 0,30 -3,60 -7,89 -5,27 -11,55 -18,83z"/>
  <path class="fil27" d="M1426 3065c-13,-78 -43,-261 -68,-419 43,67 81,133 108,195 -1,30 -3,60 -7,89 -5,27 -11,55 -18,83 -4,17 -10,35 -15,52z"/>
  <path class="fil8" d="M1346 2171c0,0 371,488 381,780 9,245 -404,719 -404,719l-120 -78c0,0 242,-336 303,-611 -24,-273 -521,-810 -521,-810l361 0z"/>
  <path class="fil25" d="M1323 3670l-22 -14 -80 -52 -18 -12c0,0 242,-336 303,-611l0 0 0 0c-4,-42 -18,-89 -40,-140 -27,-62 -65,-128 -108,-195 -24,-37 -50,-75 -76,-111 -4,-12 -12,-22 -21,-29 -108,-146 -220,-273 -260,-318l347 0c3,0 6,-2 6,-4l1 -2c56,76 363,503 372,769 0,3 0,5 0,8 0,30 -6,63 -16,99 -2,6 -4,12 -6,19 -1,2 -1,3 -2,5 -5,14 -10,28 -16,43 -1,2 -2,3 -2,5 -3,5 -5,10 -7,15 -36,81 -87,166 -140,244 -1,1 -2,3 -3,4 -10,15 -20,30 -30,44 -1,1 -2,3 -4,4 -21,31 -42,60 -62,86 -2,2 -3,4 -5,6 -14,18 -27,35 -40,51 -42,53 -71,86 -71,86z"/>
  <path class="fil8" d="M887 1589c-40,9 -78,153 -78,153l155 104c0,0 52,-114 34,-164 -19,-52 -61,-105 -111,-93z"/>
  <polygon class="fil14" points="936,1827 931,1824 936,1827 "/>
  <path class="fil9" d="M936 1827l-5 -3 -25 -17 9 -94c8,42 16,80 21,114z"/>
  <path class="fil8" d="M1392 1591c0,0 46,16 -46,580 -155,0 -315,0 -390,0 7,-159 7,-257 -69,-582 0,0 82,-18 166,-22 65,-3 119,-5 177,0 76,7 162,24 162,24z"/>
  <path class="fil7" d="M1431 1681c9,24 19,51 28,76 10,26 19,51 29,77l30 77 8 19 4 10 2 4 0 1c-1,0 -1,-3 -9,-8 -4,-2 -10,-4 -16,-4 -6,0 -11,1 -13,2 -6,3 -6,4 -6,4 0,0 2,-1 3,-3 5,-6 12,-17 17,-28 6,-12 12,-24 17,-36 11,-24 21,-50 31,-75 10,-26 19,-52 28,-78l28 -78 47 12c-9,56 -21,111 -36,166 -7,27 -15,54 -24,82 -5,14 -10,27 -16,42 -6,14 -12,28 -23,44 -3,4 -6,8 -11,13 -4,5 -10,10 -22,16 -6,2 -14,5 -24,4 -9,0 -19,-3 -25,-8 -14,-8 -19,-17 -23,-23 -2,-3 -3,-6 -4,-8l-3 -5 -4 -10 -10 -19c-12,-25 -23,-51 -35,-77 -11,-25 -22,-52 -32,-78 -10,-27 -20,-52 -29,-81l93 -30z"/>
  <path class="fil8" d="M1392 1591c47,12 99,150 99,150l-139 119c0,0 -90,-151 -72,-201 19,-52 51,-82 112,-68z"/>
  <path class="fil7" d="M1634 1598l49 -41 34 53 -25 44c0,0 -40,37 -76,18 -11,-25 -4,-56 18,-74z"/>
  <polygon class="fil7" points="1771,1557 1768,1571 1690,1584 1683,1557 "/>
  <polygon class="fil8" points="1333,3676 1193,3586 1218,3543 1375,3639 "/>
  <path class="fil12" d="M1068 3735c15,8 27,10 33,8 3,-2 4,-4 5,-8 0,-1 -1,-2 -1,-3 -5,-4 -24,-1 -37,3zm28 13c-12,0 -26,-7 -35,-12l-1 -2 1 -2c4,-1 37,-11 47,-3 1,1 3,3 2,7 0,5 -3,9 -7,11 -2,1 -5,1 -7,1z"/>
  <path class="fil12" d="M1086 3703c-1,0 -2,0 -4,1 -7,4 -13,18 -16,27 10,-5 25,-17 26,-24 0,-1 -1,-2 -3,-3l-3 -1zm-24 34l-2 -1 0 -2c0,-1 8,-28 20,-34 4,-2 7,-2 11,0 5,2 5,6 5,8 -1,11 -23,26 -33,28l-1 1z"/>
  <path class="fil12" d="M1235 3774c15,15 29,24 37,22 2,0 4,-1 6,-4l0 -3c-3,-6 -26,-12 -43,-15zm35 27c-13,0 -33,-18 -43,-28l-1 -3 3 -1c5,0 47,6 53,18 1,2 1,5 0,7 -2,4 -6,6 -10,7l-2 0z"/>
  <path class="fil12" d="M1233 3769c14,1 36,-4 38,-10 1,0 1,-2 -2,-4 -2,-3 -5,-3 -9,-3 -10,1 -22,12 -27,17zm3 5c-3,0 -6,0 -8,-1l-2 -1 1 -3c0,0 17,-20 33,-22 5,0 9,1 12,4 5,4 5,8 4,10 -4,9 -25,13 -40,13z"/>
  <path class="fil8" d="M1065 3724l-103 -30c-4,-1 -8,1 -9,5l-36 78c-3,9 2,19 11,21 36,10 54,12 100,25 28,8 68,23 107,34 38,10 51,-27 36,-35 -68,-36 -73,-61 -92,-88 -3,-5 -8,-9 -14,-10z"/>
  <path class="fil8" d="M1230 3758l-89 -61c-3,-2 -7,-2 -10,1l-59 63c-6,6 -4,18 3,23 31,21 48,29 87,56 24,17 71,54 104,77 33,22 58,-9 46,-21 -52,-57 -64,-92 -73,-124 -1,-6 -5,-10 -9,-14z"/>
  <polygon class="fil8" points="1158,3644 998,3565 1015,3522 1185,3605 "/>
  <path class="fil8" d="M950 2148l-13 35c-2,2 2,5 6,5l405 0c3,0 6,-2 6,-4l4 -35c0,-2 -3,-4 -7,-4l-394 0c-3,0 -6,1 -7,3z"/>
  <path class="fil28" d="M1348 2188l-405 0c-4,0 -7,-2 -7,-4 0,0 1,-1 1,-1l13 -35c1,-2 4,-3 7,-3l394 0c4,0 7,2 7,4 0,0 0,0 0,0l-4 35c0,2 -3,4 -6,4z"/>
  <path class="fil8" d="M1014 2192l-11 0c-2,0 -3,-1 -3,-2l5 -46c0,-1 2,-2 4,-2l10 0c2,0 4,1 4,2l-5 46c0,1 -2,2 -4,2z"/>
  <path class="fil8" d="M1264 2192l-11 0c-2,0 -4,-1 -4,-2l5 -46c1,-1 2,-2 4,-2l11 0c2,0 4,1 4,2l-5 46c0,1 -2,2 -4,2z"/>
  <path class="fil29" d="M1004 4264c0,0 0,0 -1,0 -181,0 -327,-11 -326,-24 0,-7 45,-13 116,-18 -1,9 6,18 17,18l195 0 195 0c11,0 17,-9 17,-18 71,4 116,11 115,18 0,13 -147,24 -328,24z"/>
  <path class="fil1" d="M1204 4207c-58,-17 -121,-39 -161,-62 -1,0 -2,-1 -3,-2l0 -262 116 0c20,0 35,-15 35,-35 0,-19 -15,-35 -35,-35l-116 0 0 -1196 -70 0 0 1196 -117 0c-19,0 -35,16 -35,35 0,20 16,35 35,35l117 0 0 262c-1,1 -2,2 -4,2 -39,23 -103,45 -161,62 -19,5 -15,33 5,33l195 0 195 0c19,0 23,-28 4,-33z"/>
  <path class="fil8" d="M1222 2749l-435 0c-35,0 -63,-29 -63,-63l0 -130c0,-35 28,-63 63,-63l435 0c35,0 64,28 64,63l0 130c0,34 -29,63 -64,63z"/>
  <path class="fil8" d="M783 2749l0 22c0,19 20,34 45,34l354 0c24,0 44,-15 44,-34l0 -22 -443 0z"/>
  <path class="fil30" d="M1182 2805l-354 0c-25,0 -45,-15 -45,-34l0 -22 443 0 0 22c0,19 -20,34 -44,34z"/>
 </g>
</svg>
