<?xml version="1.0" encoding="UTF-8"?>
<!DOCTYPE svg PUBLIC "-//W3C//DTD SVG 1.1//EN" "http://www.w3.org/Graphics/SVG/1.1/DTD/svg11.dtd">
<!-- Creator: CorelDRAW X8 -->
<svg xmlns="http://www.w3.org/2000/svg" xml:space="preserve" width="323.515mm" height="273.867mm" version="1.1" style="shape-rendering:geometricPrecision; text-rendering:geometricPrecision; image-rendering:optimizeQuality; fill-rule:evenodd; clip-rule:evenodd"
viewBox="0 0 6687 5661"
 xmlns:xlink="http://www.w3.org/1999/xlink">
 <defs>
  <style type="text/css">
   <![CDATA[
    .fil8 {fill:#FEFEFE;fill-rule:nonzero}
    .fil20 {fill:#F7F7F8;fill-rule:nonzero}
    .fil2 {fill:#F3F4F4;fill-rule:nonzero}
    .fil1 {fill:#F1F1F0;fill-rule:nonzero}
    .fil11 {fill:#EEF2FA;fill-rule:nonzero}
    .fil0 {fill:#EDEDEB;fill-rule:nonzero}
    .fil3 {fill:#E8E7E8;fill-rule:nonzero}
    .fil21 {fill:#E1EAF6;fill-rule:nonzero}
    .fil4 {fill:#E0E1E2;fill-rule:nonzero}
    .fil27 {fill:#D1625A;fill-rule:nonzero}
    .fil25 {fill:#D0DEF2;fill-rule:nonzero}
    .fil16 {fill:#CECFCF;fill-rule:nonzero}
    .fil28 {fill:#BC3738;fill-rule:nonzero}
    .fil19 {fill:#C3D7EF;fill-rule:nonzero}
    .fil24 {fill:#C5CCD9;fill-rule:nonzero}
    .fil29 {fill:#A9514C;fill-rule:nonzero}
    .fil23 {fill:#B6C0CF;fill-rule:nonzero}
    .fil12 {fill:#AFC9E9;fill-rule:nonzero}
    .fil7 {fill:#ADC7E8;fill-rule:nonzero}
    .fil22 {fill:#9CAFCF;fill-rule:nonzero}
    .fil26 {fill:#94B4DE;fill-rule:nonzero}
    .fil30 {fill:#8AA3CD;fill-rule:nonzero}
    .fil15 {fill:#87A4CF;fill-rule:nonzero}
    .fil6 {fill:#7AA0D3;fill-rule:nonzero}
    .fil9 {fill:#6B93CB;fill-rule:nonzero}
    .fil31 {fill:#60656D;fill-rule:nonzero}
    .fil10 {fill:#5E86C4;fill-rule:nonzero}
    .fil14 {fill:#5B86C4;fill-rule:nonzero}
    .fil32 {fill:#2C2D2E;fill-rule:nonzero}
    .fil5 {fill:#4B7ABC;fill-rule:nonzero}
    .fil13 {fill:#313F44;fill-rule:nonzero}
    .fil18 {fill:#2E373B;fill-rule:nonzero}
    .fil17 {fill:#3B6BB2;fill-rule:nonzero}
   ]]>
  </style>
 </defs>
 <g id="Layer_x0020_1">
  <metadata id="CorelCorpID_0Corel-Layer"/>
  <polygon class="fil0" points="4594,5220 4744,5220 4744,5216 4594,5216 "/>
  <path class="fil1" d="M1090 3725c-14,-167 -184,-229 -386,-211 -201,17 -358,108 -343,275l729 -64z"/>
  <path class="fil1" d="M698 3438c93,-9 123,-88 115,-181 -9,-94 -52,-166 -145,-158 -94,8 -123,87 -115,181 8,93 51,166 145,158z"/>
  <path class="fil2" d="M4897 176c5,52 -33,97 -85,102 -51,4 -97,-34 -101,-85 -5,-52 33,-97 85,-102 51,-4 97,34 101,85z"/>
  <path class="fil2" d="M5416 131c4,51 -34,97 -85,101 -52,5 -97,-33 -102,-85 -4,-51 34,-97 85,-101 52,-5 97,33 102,85z"/>
  <path class="fil2" d="M5935 86c4,51 -34,97 -86,101 -51,5 -97,-34 -101,-85 -5,-52 33,-97 85,-102 52,-4 97,34 102,86z"/>
  <path class="fil2" d="M4944 705c4,51 -34,97 -86,101 -51,5 -97,-33 -101,-85 -5,-51 34,-97 85,-101 52,-5 97,33 102,85z"/>
  <path class="fil2" d="M5462 660c5,51 -33,97 -85,101 -52,5 -97,-34 -102,-85 -4,-52 34,-97 86,-102 51,-4 97,34 101,86z"/>
  <path class="fil2" d="M5981 614c4,52 -34,97 -85,102 -52,4 -97,-34 -102,-86 -4,-51 34,-97 85,-101 52,-5 97,34 102,85z"/>
  <path class="fil2" d="M4990 1233c4,52 -34,98 -85,102 -52,5 -97,-34 -102,-85 -4,-52 34,-97 85,-102 52,-4 97,34 102,85z"/>
  <path class="fil2" d="M5508 1188c5,52 -33,97 -85,102 -51,4 -97,-34 -101,-86 -5,-51 33,-97 85,-101 51,-5 97,34 101,85z"/>
  <path class="fil2" d="M6027 1143c5,51 -34,97 -85,101 -52,5 -97,-33 -102,-85 -4,-51 34,-97 86,-101 51,-5 97,33 101,85z"/>
  <path class="fil3" d="M5915 1173l-1065 93 944 -1148 -968 85c-11,1 -21,-7 -22,-19 -1,-11 7,-21 19,-22l1065 -93 -945 1148 968 -85c12,-1 22,8 23,19 1,11 -8,21 -19,22z"/>
  <path class="fil1" d="M5931 3222c-3,-10 -12,-17 -23,-18 -49,-3 -90,-22 -123,-54 -42,-43 -68,-108 -72,-186 0,-14 -12,-25 -27,-25l0 0c-16,0 -29,13 -28,29 5,91 36,168 88,220 41,41 93,65 153,71 1,0 2,0 4,0 20,1 35,-18 28,-37z"/>
  <path class="fil1" d="M5876 3553c-228,-20 -393,-175 -445,-419 -4,-15 6,-30 22,-33l0 0c14,-3 28,7 31,21 47,219 194,359 397,376 223,20 462,-127 505,-496 2,-15 15,-26 30,-25 15,1 27,15 25,30 -41,349 -270,572 -565,546z"/>
  <path class="fil1" d="M5445 2892l0 0c-15,-1 -27,-15 -25,-30 41,-349 270,-572 564,-546 258,23 432,216 459,507 2,15 -10,28 -25,29l0 0c-15,1 -28,-10 -30,-25 -24,-262 -179,-436 -408,-456 -223,-19 -462,127 -505,497 -2,14 -15,26 -30,24z"/>
  <path class="fil1" d="M5887 3406c-42,-4 -82,-14 -118,-30 -15,-7 -21,-24 -14,-39 7,-12 22,-18 35,-12 35,15 73,24 113,26 169,10 348,-110 365,-399 11,-178 -50,-322 -164,-390 -12,-8 -17,-23 -10,-36 7,-15 25,-20 39,-12 132,80 202,242 190,442 -17,278 -190,464 -423,451 -4,-1 -8,-1 -13,-1z"/>
  <path class="fil1" d="M5642 3234c-14,9 -32,4 -40,-10 -49,-84 -72,-193 -65,-310 16,-267 176,-448 394,-452 16,0 29,13 28,29l0 1c-1,14 -13,25 -27,25 -161,4 -323,125 -340,400 -6,107 14,205 58,280 7,13 4,29 -8,37z"/>
  <path class="fil1" d="M6019 3211l0 0c-6,-13 -1,-28 11,-35 73,-43 117,-135 118,-245 0,-89 -25,-164 -72,-211 -37,-37 -84,-55 -140,-55 -85,0 -154,47 -192,129 -6,13 -21,19 -35,14 -15,-6 -22,-23 -15,-38 47,-101 135,-160 241,-160 71,0 133,24 180,71 57,58 89,147 88,250 -1,130 -56,240 -145,293 -14,8 -33,2 -39,-13z"/>
  <path class="fil1" d="M5820 3008c-16,7 -33,-3 -37,-19 -2,-7 -4,-15 -5,-23 -15,-103 40,-193 129,-209 46,-8 87,3 119,31 13,11 12,31 -2,41l-2 1c-11,8 -24,6 -34,-2 -19,-16 -43,-22 -71,-17 -68,12 -94,83 -84,147 1,6 2,12 3,18 4,13 -3,27 -16,32z"/>
  <path class="fil1" d="M5911 3114l0 0c-19,-1 -29,-23 -19,-39l2 -3c5,-9 14,-13 24,-12 8,0 17,0 26,-2 59,-11 86,-66 86,-122 0,-14 9,-26 23,-28 16,-3 32,9 32,26 2,90 -51,164 -132,178 -14,3 -28,4 -42,2z"/>
  <path class="fil1" d="M5924 3013c-30,-3 -52,-23 -60,-51 -4,-16 9,-32 26,-31l7 1c10,1 18,7 21,17 2,4 5,8 10,9 14,1 16,-18 16,-22 1,-3 1,-13 -3,-20 -5,-6 -8,-13 -7,-20 2,-25 33,-35 49,-16 12,16 18,37 16,61 -4,45 -36,75 -75,72z"/>
  <path class="fil1" d="M5405 2395l0 0c-15,-1 -26,-14 -25,-30l21 -239 239 21c15,2 26,15 25,30 -1,15 -15,27 -30,25l-184 -16 -16 184c-2,15 -15,27 -30,25z"/>
  <path class="fil1" d="M6542 2495l0 0c-15,-1 -27,-15 -25,-30l16 -184 -184 -16c-15,-2 -27,-15 -25,-30 1,-15 14,-27 30,-25l239 21 -21 239c-2,15 -15,26 -30,25z"/>
  <path class="fil1" d="M6457 3780l-239 -20c-15,-2 -26,-15 -25,-30 1,-16 15,-27 30,-25l184 16 16 -184c1,-16 15,-27 30,-26 15,2 26,15 25,30l-21 239z"/>
  <path class="fil1" d="M5504 3697l-239 -21 21 -239c1,-15 15,-26 30,-25 15,1 26,15 25,30l-16 184 184 16c15,1 26,15 25,30 -1,15 -15,26 -30,25z"/>
  <path class="fil4" d="M321 3180l0 0c-9,0 -17,-7 -18,-16l-13 -147 147 -13c9,-1 17,6 18,16 1,9 -6,17 -15,18l-113 10 10 113c0,10 -7,18 -16,19z"/>
  <path class="fil4" d="M1020 3118l0 0c-9,1 -17,-6 -18,-15l-10 -113 -113 10c-10,1 -18,-6 -19,-16 -1,-9 6,-17 16,-18l147 -13 13 147c0,9 -7,18 -16,18z"/>
  <path class="fil4" d="M1093 3751l-147 13c-10,1 -18,-6 -19,-15 -1,-9 6,-18 16,-18l113 -10 -10 -114c-1,-9 6,-17 15,-18 10,-1 18,6 19,15l13 147z"/>
  <path class="fil4" d="M507 3803l-147 13 -13 -147c-1,-10 6,-18 15,-19 10,-1 18,6 19,16l10 113 113 -10c9,-1 17,6 18,15 1,10 -6,18 -15,19z"/>
  <path class="fil0" d="M769 1082l14 158c2,26 -17,49 -43,51 -26,2 -49,-17 -51,-43l-14 -158c-20,-13 -35,-35 -37,-61 -4,-43 28,-82 72,-86 44,-3 82,29 86,73 2,26 -9,50 -27,66zm239 -354l-562 49 -12 -132c-12,-136 90,-257 226,-269 137,-12 258,89 270,226l6 76 81 -7 -6 -76c-16,-182 -177,-316 -358,-300 -181,16 -316,176 -300,357l12 133c-66,13 -113,73 -107,141l41 459c6,73 70,127 143,120l630 -55c72,-6 126,-70 120,-143l-41 -459c-6,-73 -70,-127 -143,-120z"/>
  <path class="fil1" d="M1867 722c-77,-2 -141,-67 -143,-144 -3,-77 55,-142 130,-151 9,-1 17,6 17,15 0,8 -5,14 -13,15 -66,8 -116,70 -102,141 9,45 46,82 92,91 75,15 141,-43 141,-115 0,-24 -8,-48 -21,-67 -5,-7 -4,-15 2,-20 7,-6 17,-5 23,3 17,24 26,54 26,84 0,83 -68,150 -152,148zm372 78l-39 -9c-8,-2 -13,-10 -11,-19 2,-8 10,-13 18,-11l17 4c14,-24 24,-50 32,-77l-90 -55 1 -10c3,-18 5,-34 5,-49 0,-15 -2,-31 -5,-49l-1 -10 90 -55c-8,-27 -18,-53 -32,-77l-103 24 -6 -8c-19,-26 -42,-50 -69,-69l-8 -6 25 -103c-25,-13 -51,-24 -77,-32l-56 91 -10 -2c-32,-5 -65,-5 -97,0l-10 2 -56 -91c-3,1 -7,2 -10,3 -8,3 -16,-1 -19,-9 -3,-8 1,-17 9,-19 8,-3 16,-5 23,-7l11 -3 57 93c31,-5 56,-5 87,0l57 -93 11 3c36,10 72,24 105,43l9 6 -25 106c23,17 44,38 62,61l105 -25 6 10c19,33 34,68 44,105l2 11 -92 57c2,15 3,29 3,43 0,14 -1,28 -3,43l92 57 -2 11c-10,37 -25,72 -44,105l-6 10zm-616 -8c-5,-6 -9,-11 -14,-17l-106 25 -5 -10c-19,-33 -34,-68 -44,-105l-3 -11 93 -57c-2,-15 -3,-29 -3,-43 0,-14 1,-28 3,-43l-93 -57 3 -11c10,-37 25,-72 44,-105l5 -10 106 25c18,-23 38,-44 62,-61l-20 -80c-2,-8 3,-17 12,-18l0 0c8,-2 16,3 18,11l24 99 -9 6c-26,19 -49,43 -68,69l-6 8 -103 -24c-14,24 -25,50 -32,77l90 55 -2 10c-2,18 -4,34 -4,49 0,15 2,31 4,49l2 10 -90 55c7,27 18,53 32,77l103 -24 6 8c5,8 11,15 18,22 5,6 5,16 -1,21l-1 1c-6,5 -15,5 -21,-1zm349 202l-57 -93c-31,5 -56,5 -87,0l-57 93 -11 -3c-37,-10 -72,-24 -105,-43l-10 -6 24 -101c2,-8 11,-13 19,-11 8,2 13,10 11,18l-19 79c25,13 50,24 77,32l56 -91 10 2c32,5 65,5 97,0l10 -2 56 91c26,-8 52,-19 77,-32l-25 -103 8 -6c23,-17 43,-36 60,-57 5,-7 14,-8 21,-4 7,5 9,15 3,22 -17,21 -36,41 -58,57l25 106 -9 6c-33,19 -69,33 -105,43l-11 3z"/>
  <path class="fil3" d="M833 2080c-50,-1 -92,-42 -93,-92 -1,-50 36,-92 84,-98 6,-1 11,4 11,10l0 0c0,5 -3,9 -8,10 -43,4 -75,45 -66,90 6,30 30,54 59,59 49,10 91,-27 91,-74 0,-16 -5,-31 -13,-44 -3,-4 -2,-9 1,-12 5,-4 11,-3 15,1 11,16 17,35 17,55 0,54 -44,97 -98,95zm240 51l-25 -6c-5,-1 -9,-7 -7,-12 1,-5 6,-8 12,-7l10 3c9,-16 16,-33 21,-50l-58 -36 1 -7c1,-11 2,-21 2,-31 0,-10 -1,-20 -2,-31l-1 -7 58 -36c-5,-17 -12,-34 -21,-50l-66 16 -4 -5c-12,-17 -27,-32 -45,-44l-5 -4 16 -67c-16,-9 -33,-16 -50,-21l-36 59 -6 -1c-21,-4 -42,-4 -63,0l-7 1 -35 -59c-3,1 -5,2 -7,2 -5,2 -10,-1 -12,-6 -2,-5 1,-10 6,-12 5,-2 10,-3 15,-5l7 -1 36 60c20,-3 36,-3 56,0l37 -60 7 1c24,7 47,16 68,29l6 3 -16 69c15,11 28,24 40,39l68 -16 4 6c12,22 22,44 28,68l2 7 -60 37c1,10 2,19 2,28 0,9 -1,18 -2,28l60 37 -2 7c-6,24 -16,46 -28,68l-4 6zm-398 -5c-3,-4 -6,-8 -9,-11l-68 16 -4 -6c-12,-22 -22,-44 -28,-68l-2 -7 60 -37c-1,-10 -2,-19 -2,-28 0,-9 1,-18 2,-28l-60 -37 2 -7c6,-24 16,-46 28,-68l4 -6 68 16c11,-15 25,-28 40,-39l-13 -52c-1,-5 2,-11 8,-12l0 0c5,-1 10,2 11,7l16 65 -6 4c-17,12 -32,27 -44,44l-4 5 -67 -16c-8,16 -15,33 -20,50l58 36 -1 7c-2,11 -3,21 -3,31 0,10 1,20 3,31l1 7 -58 36c5,17 12,34 20,50l67 -16 4 5c4,5 8,10 12,15 3,3 3,9 -1,13l0 0c-4,4 -10,4 -14,0zm225 130l-37 -60c-19,3 -36,3 -56,0l-36 60 -7 -1c-24,-7 -47,-16 -68,-29l-7 -3 16 -65c1,-6 6,-9 12,-8 5,2 8,7 7,12l-12 51c16,9 32,15 50,21l35 -59 7 1c21,4 42,4 63,0l6 -1 36 59c17,-6 34,-12 50,-21l-16 -67 5 -4c15,-10 28,-22 39,-36 3,-5 9,-6 14,-2 4,3 5,9 2,13 -11,14 -24,27 -38,37l16 69 -6 3c-21,13 -44,22 -68,29l-7 1z"/>
  <path class="fil2" d="M6687 5466c0,108 -1497,195 -3343,195 -1847,0 -3344,-87 -3344,-195 0,-108 1497,-196 3344,-196 1846,0 3343,88 3343,196z"/>
  <path class="fil5" d="M5300 812l-562 0 -397 4540 562 0c160,0 301,-130 315,-290l346 -3961c14,-159 -104,-289 -264,-289z"/>
  <path class="fil5" d="M5185 812l-1900 0c-160,0 -301,130 -315,289l-346 3961c-14,160 104,290 264,290l1900 0c160,0 301,-130 315,-290l347 -3961c14,-159 -105,-289 -265,-289z"/>
  <path class="fil6" d="M4788 5352l-1900 0c-151,0 -265,-117 -265,-265 0,-8 0,-16 1,-25l95 -1094 9 0 -15 172 84 0 -81 922c-9,109 71,197 180,197l1900 0c109,0 205,-88 214,-197l347 -3961c9,-108 -71,-196 -180,-196l-501 0c-29,0 -57,19 -68,47 -40,105 -143,177 -252,177l-297 0c-109,0 -199,-72 -221,-177l0 0c-4,-16 -13,-30 -27,-38l2 -6 -16 0c-6,-2 -12,-3 -19,-3l-501 0c-12,0 -23,1 -34,3l-181 0c58,-59 138,-96 223,-96l1900 0c152,0 266,116 266,264 0,8 -1,17 -1,25l-347 3961c-14,160 -155,290 -315,290l0 0zm-560 -4452c-44,0 -83,35 -87,79 -3,44 29,79 73,79 43,0 82,-35 86,-79 4,-44 -29,-79 -72,-79z"/>
  <path class="fil7" d="M4796 5259l-1900 0c-109,0 -189,-88 -180,-197l81 -922 711 0 125 -481c17,32 50,54 90,54l517 0c61,0 114,-49 119,-110 6,-60 -39,-109 -100,-109l-517 0c-28,0 -54,10 -75,27l-12 -137 1020 0c40,0 74,-32 78,-71l6 -76c4,-40 -25,-72 -65,-72l-1058 0 -9 -109 1077 0c39,0 74,-32 78,-71l6 -77c4,-39 -26,-71 -65,-71l-1087 0 67 -257c91,92 219,148 365,148 307,0 578,-250 605,-557 27,-308 -200,-557 -508,-557 -166,0 -321,73 -433,188l-10 -110 160 -612 -114 0 43 -166c14,8 23,22 27,38l0 0c22,105 112,177 221,177l297 0c109,0 212,-72 252,-177 11,-28 39,-47 68,-47l501 0c109,0 189,88 180,196l-347 3961c-9,109 -105,197 -214,197zm-1117 -961c-63,0 -120,52 -125,116l-36 404c-5,63 42,115 106,115l554 0c64,0 120,-52 126,-115l35 -404c5,-64 -42,-116 -106,-116l-554 0zm1463 -3333c-13,0 -24,10 -26,23l-8 100c-1,13 8,23 21,23 13,0 24,-10 25,-23l9 -100c1,-13 -8,-23 -21,-23zm-96 29c-12,0 -24,10 -25,23l-6 71c-1,13 8,23 21,23 13,0 24,-10 25,-23l7 -71c1,-13 -9,-23 -22,-23zm-95 28c-13,0 -24,10 -25,23l-4 43c-1,13 9,23 21,23 13,0 24,-10 26,-23l3 -43c1,-13 -8,-23 -21,-23zm-1154 -114l-554 0c11,-2 22,-3 34,-3l501 0c7,0 13,1 19,3z"/>
  <path class="fil8" d="M4704 3056l-1330 0c-40,0 -69,-32 -65,-71l6 -77c4,-39 39,-71 78,-71l1330 0c39,0 69,32 65,71l-6 77c-4,39 -39,71 -78,71z"/>
  <path class="fil8" d="M4675 3384l-1330 0c-39,0 -68,-32 -65,-71l7 -76c3,-40 38,-72 77,-72l1330 0c40,0 69,32 65,72l-6 76c-4,39 -38,71 -78,71z"/>
  <path class="fil9" d="M4214 1058c-44,0 -76,-35 -73,-79 4,-44 43,-79 87,-79 43,0 76,35 72,79 -4,44 -43,79 -86,79zm10 -122c-23,0 -45,19 -47,43 -2,24 16,43 40,43 24,0 45,-19 47,-43 2,-24 -16,-43 -40,-43z"/>
  <path class="fil10" d="M4217 1022c-24,0 -42,-19 -40,-43 2,-24 24,-43 47,-43 24,0 42,19 40,43 -2,24 -23,43 -47,43z"/>
  <path class="fil11" d="M4943 1111c-12,0 -22,-10 -21,-23l4 -43c1,-13 12,-23 25,-23 13,0 22,10 21,23l-3 43c-2,13 -13,23 -26,23z"/>
  <path class="fil11" d="M5129 1111c-13,0 -22,-10 -21,-23l8 -100c2,-13 13,-23 26,-23 13,0 22,10 21,23l-9 100c-1,13 -12,23 -25,23z"/>
  <path class="fil11" d="M5036 1111c-13,0 -22,-10 -21,-23l6 -71c1,-13 13,-23 25,-23 13,0 23,10 22,23l-7 71c-1,13 -12,23 -25,23z"/>
  <path class="fil8" d="M4673 2171c-27,307 -298,557 -605,557 -308,0 -535,-250 -508,-557 26,-308 298,-557 605,-557 308,0 535,249 508,557z"/>
  <path class="fil5" d="M4118 2149c-146,0 -270,56 -280,177l-12 134 530 0 12 -134c10,-121 -103,-177 -250,-177z"/>
  <path class="fil5" d="M4123 2094c68,0 99,-55 105,-123 6,-68 -16,-123 -83,-123 -68,0 -100,55 -106,123 -6,68 16,123 84,123z"/>
  <path class="fil5" d="M4643 2943c-36,0 -66,13 -69,43l-3 33 131 0 3 -33c2,-30 -26,-43 -62,-43z"/>
  <path class="fil5" d="M4644 2929c17,0 25,-14 26,-30 2,-17 -4,-31 -20,-31 -17,0 -25,14 -26,31 -2,16 4,30 20,30z"/>
  <path class="fil5" d="M4240 3713l-517 0c-61,0 -105,-49 -100,-110 5,-60 58,-109 119,-109l517 0c61,0 106,49 100,109 -5,61 -58,110 -119,110z"/>
  <path class="fil5" d="M4178 4933l-554 0c-64,0 -111,-52 -106,-115l36 -404c5,-64 62,-116 125,-116l554 0c64,0 111,52 106,116l-35 404c-6,63 -62,115 -126,115z"/>
  <path class="fil12" d="M3917 4752c-23,0 -40,-19 -38,-42l12 -139c-16,-12 -25,-32 -23,-55 3,-39 37,-70 75,-70 39,0 67,31 64,70 -2,23 -15,43 -33,55l-12 139c-2,23 -22,42 -45,42z"/>
  <path class="fil5" d="M4238 4382l-71 0 17 -200c11,-120 -78,-218 -198,-218 -120,0 -227,98 -237,218l-18 200 -71 0 17 -200c14,-159 155,-289 315,-289 159,0 278,130 264,289l-18 200z"/>
  <path class="fil5" d="M4620 3203c15,0 26,12 25,27l-2 19 -53 0 1 -19c2,-15 15,-27 29,-27zm32 46l2 -19c1,-20 -13,-36 -33,-36 -19,0 -37,16 -38,36l-2 19c-8,0 -15,6 -16,14l-4 51c-1,8 5,14 13,14l71 0c8,0 15,-6 15,-14l5 -51c1,-8 -5,-14 -13,-14z"/>
  <path class="fil13" d="M3582 3269l-24 -5c-3,-1 -5,-4 -4,-7l11 -24c2,-5 -4,-9 -9,-5l-18 19c-2,3 -6,3 -8,0l-15 -19c-4,-4 -11,0 -9,5l6 24c1,3 -2,6 -5,7l-25 5c-6,1 -6,9 -1,10l25 5c3,1 4,4 3,7l-10 24c-3,5 4,9 8,5l18 -19c3,-2 6,-2 8,0l15 19c4,4 11,0 9,-5l-6 -24c0,-3 2,-6 5,-7l26 -5c5,-1 6,-9 0,-10z"/>
  <path class="fil13" d="M3746 3269l-25 -5c-3,-1 -5,-4 -3,-7l10 -24c2,-5 -4,-9 -8,-5l-19 19c-2,3 -6,3 -8,0l-15 -19c-3,-4 -10,0 -9,5l6 24c1,3 -1,6 -4,7l-26 5c-6,1 -6,9 -1,10l25 5c3,1 4,4 3,7l-10 24c-2,5 4,9 8,5l19 -19c2,-2 5,-2 7,0l16 19c3,4 10,0 9,-5l-6 -24c-1,-3 1,-6 4,-7l26 -5c5,-1 6,-9 1,-10z"/>
  <path class="fil13" d="M3909 3269l-25 -5c-3,-1 -4,-4 -3,-7l10 -24c2,-5 -4,-9 -8,-5l-19 19c-2,3 -6,3 -7,0l-16 -19c-3,-4 -10,0 -9,5l6 24c1,3 -1,6 -4,7l-26 5c-5,1 -6,9 -1,10l25 5c3,1 4,4 3,7l-10 24c-2,5 4,9 8,5l19 -19c2,-2 6,-2 7,0l16 19c3,4 10,0 9,-5l-6 -24c-1,-3 1,-6 4,-7l26 -5c5,-1 6,-9 1,-10z"/>
  <path class="fil13" d="M4072 3269l-25 -5c-3,-1 -4,-4 -3,-7l10 -24c2,-5 -4,-9 -8,-5l-19 19c-2,3 -5,3 -7,0l-16 -19c-3,-4 -10,0 -9,5l6 24c1,3 -1,6 -4,7l-26 5c-5,1 -6,9 -1,10l25 5c3,1 5,4 3,7l-10 24c-2,5 4,9 8,5l19 -19c2,-2 6,-2 8,0l15 19c3,4 10,0 9,-5l-6 -24c-1,-3 1,-6 4,-7l26 -5c6,-1 6,-9 1,-10z"/>
  <path class="fil13" d="M4235 3269l-25 -5c-3,-1 -4,-4 -3,-7l10 -24c3,-5 -4,-9 -8,-5l-18 19c-3,3 -6,3 -8,0l-15 -19c-4,-4 -11,0 -10,5l7 24c0,3 -2,6 -5,7l-26 5c-5,1 -6,9 0,10l24 5c3,1 5,4 4,7l-11 24c-2,5 4,9 8,5l19 -19c2,-2 6,-2 8,0l15 19c3,4 11,0 9,-5l-6 -24c-1,-3 2,-6 5,-7l25 -5c6,-1 6,-9 1,-10z"/>
  <path class="fil13" d="M4398 3269l-24 -5c-3,-1 -5,-4 -4,-7l11 -24c2,-5 -5,-9 -9,-5l-18 19c-3,3 -6,3 -8,0l-15 -19c-4,-4 -11,0 -9,5l6 24c0,3 -2,6 -5,7l-25 5c-6,1 -7,9 -1,10l25 5c3,1 4,4 3,7l-11 24c-2,5 5,9 9,5l18 -19c3,-2 6,-2 8,0l15 19c4,4 11,0 9,-5l-6 -24c0,-3 2,-6 5,-7l25 -5c6,-1 7,-9 1,-10z"/>
  <path class="fil13" d="M4005 2912l-306 0c-19,0 -36,15 -38,35 -2,19 12,34 32,34l306 0c19,0 36,-15 37,-34 2,-20 -12,-35 -31,-35z"/>
  <path class="fil13" d="M4316 2912l-178 0c-19,0 -36,15 -37,35 -2,19 12,34 31,34l178 0c19,0 36,-15 37,-34 2,-20 -12,-35 -31,-35z"/>
  <path class="fil13" d="M4551 4475c-116,46 -217,114 -286,190 -41,-34 -99,-58 -168,-69l-8 -2 -4 41 5 2c68,26 124,71 161,132l6 10 6 -10c71,-114 175,-209 292,-269l4 -2 2 -27 -10 4z"/>
  <polygon class="fil14" points="2797,4140 2713,4140 2728,3968 2812,3968 "/>
  <path class="fil15" d="M3508 4140l-711 0 15 -172 627 0 152 -584 64 0 12 137c-24,20 -41,50 -44,82 -2,21 2,40 10,56l-125 481zm128 -975l-54 0 -9 -109 54 0 9 109zm0 -328l-82 0 -8 -93 72 -278c23,42 51,80 85,114l-67 257z"/>
  <polygon class="fil16" points="3627,3056 3573,3056 3554,2837 3636,2837 3615,2916 "/>
  <path class="fil16" d="M3655 3384l-64 0 8 -28 -17 -191 54 0 9 104 0 0c-6,1 -6,9 -1,10l2 0 9 105z"/>
  <path class="fil15" d="M3682 1859l-29 -339 115 -440 114 0 -160 612 10 110c-18,18 -34,37 -50,57z"/>
  <path class="fil16" d="M3703 2580c-34,-34 -62,-72 -85,-114l88 -334 -24 -273c16,-20 32,-39 50,-57l43 502 -72 276z"/>
  <path class="fil17" d="M3633 3659c-8,-16 -12,-35 -10,-56 3,-32 20,-62 44,-82l1 7 -35 131z"/>
  <path class="fil18" d="M3646 3279l-2 0c-5,-1 -5,-9 1,-10l0 0 1 10z"/>
  <polygon class="fil5" points="3653,1520 3813,908 1803,908 1644,1520 1696,2132 1537,2744 1589,3356 1429,3968 3439,3968 3599,3356 3546,2744 3706,2132 "/>
  <path class="fil19" d="M3599 3356l-1529 0c-7,-214 -21,-453 -31,-612l1507 0 53 612z"/>
  <path class="fil19" d="M3706 2132l-378 0c58,-54 93,-113 93,-220l0 -110c0,-12 -7,-22 -17,-26l0 -35 0 0c0,-16 -13,-28 -28,-28 -3,0 -6,1 -9,2 -17,5 -39,8 -63,8 -36,0 -67,-7 -85,-17 -4,-3 -10,-5 -15,-5 -2,0 -4,0 -6,1 -3,0 -7,2 -10,4l0 0c-17,10 -49,17 -84,17 0,0 0,0 -1,0 -23,0 -45,-3 -63,-8l0 0c-2,-1 -5,-2 -8,-2 -15,0 -28,12 -28,28l0 19 -781 0c-37,0 -69,18 -89,45 -20,-23 -40,-45 -60,-68l-15 13c-16,-96 -38,-121 -38,-121 0,0 -80,-22 -165,-30 -6,-13 -10,-32 -1,-48 -12,-4 -29,-6 -49,-7 -2,-8 -2,-16 -3,-24l1850 0 160 -612 -160 612 53 612zm-1526 0l-110 0c2,-41 3,-79 4,-114 23,25 46,49 69,74 9,16 22,30 37,40z"/>
  <polygon class="fil8" points="1763,1060 1763,1060 1788,967 1788,967 "/>
  <polygon class="fil20" points="1788,967 1803,908 1788,967 "/>
  <path class="fil21" d="M3653 1520l-1850 0c0,-18 2,-35 6,-51 55,-18 99,-72 102,-137 3,-97 -41,-246 -148,-272l40 -152 2010 0 -160 612z"/>
  <path class="fil21" d="M3546 2744l-1507 0c-6,-109 -11,-180 -11,-180l-206 0 0 0 -239 0c134,0 324,0 445,0 23,-174 36,-316 42,-432l110 0c2,1 3,2 5,3 4,4 9,9 13,14l7 6c3,3 5,6 8,8 6,5 12,10 18,14 12,8 26,15 40,20 19,7 40,11 60,11 9,0 18,-1 26,-2 15,-3 29,-6 42,-12 7,-3 13,-6 19,-10 3,-1 6,-3 9,-5 3,-2 7,-5 8,-6l30 -23 664 0c2,0 3,-1 5,-1 10,8 20,16 30,24 13,10 26,19 40,30 5,3 11,5 17,5 6,0 11,-2 16,-5 34,-25 65,-48 91,-71l378 0 -88 334 -72 278z"/>
  <path class="fil21" d="M3439 3968l-1387 0c11,-108 19,-201 21,-266 4,-89 2,-213 -3,-346l1529 0 -8 28 -152 584zm-1734 0l-146 0c33,-109 59,-203 73,-268 1,-4 2,-8 3,-13 0,0 0,0 0,0 14,-68 31,-158 49,-258 2,-9 3,-19 5,-29 5,123 9,239 12,328 1,60 2,143 4,240z"/>
  <path class="fil22" d="M3328 2132l-94 0c104,-76 170,-134 170,-281l0 -75c10,4 17,14 17,26l0 110c0,107 -35,166 -93,220zm-154 0l-687 0c16,-14 32,-28 47,-43l578 0c2,0 3,0 5,0 18,14 36,28 57,43zm-992 0l-2 0c-15,-10 -28,-24 -37,-40 13,13 26,26 39,40z"/>
  <path class="fil23" d="M3221 2208c-6,0 -12,-2 -17,-5 -14,-11 -27,-20 -40,-30 -10,-8 -20,-16 -30,-24 -2,0 -3,1 -5,1l-664 0 9 -7c4,-4 9,-7 13,-11l687 0c4,3 9,6 13,10 5,3 11,5 17,5l0 0 0 0c6,0 11,-2 16,-5 5,-4 10,-7 14,-10l94 0c-26,23 -57,46 -91,71 -5,3 -10,5 -16,5zm-1036 -73c-2,-1 -3,-2 -5,-3l2 0c1,1 2,2 3,3z"/>
  <path class="fil5" d="M3112 2089l-889 0c-60,0 -109,-49 -109,-110l0 -110c0,-60 49,-109 109,-109l889 0c60,0 109,49 109,109l0 110c0,61 -49,110 -109,110z"/>
  <path class="fil5" d="M3304 1723c-36,0 -67,-7 -85,-17 -9,-6 -21,-6 -31,0 -17,10 -49,17 -84,17 -24,0 -46,-3 -64,-8 -18,-6 -36,7 -36,26l0 110c0,154 72,210 183,291 10,7 24,7 33,0 112,-81 184,-137 184,-291l0 -110c0,-19 -19,-32 -37,-26 -17,5 -39,8 -63,8z"/>
  <path class="fil6" d="M3204 2147l0 0 0 -446c-2,0 -4,0 -6,1 2,-1 4,-1 6,-1 5,0 11,2 15,5 18,10 49,17 85,17 24,0 46,-3 63,-8 3,-1 6,-2 9,-2 15,0 28,12 28,28l0 110c0,154 -72,210 -184,291 -5,3 -10,5 -16,5z"/>
  <path class="fil24" d="M3204 2147c-6,0 -12,-2 -17,-5 -4,-4 -9,-7 -13,-10l0 0c4,3 9,6 13,10 5,3 11,5 17,5l0 0z"/>
  <path class="fil25" d="M3103 1723c-23,0 -45,-3 -63,-8 18,5 40,8 63,8z"/>
  <path class="fil25" d="M3188 1706c3,-2 7,-4 10,-4 -3,0 -7,2 -10,4z"/>
  <path class="fil26" d="M3204 2147c-6,0 -12,-2 -17,-5 -25,-19 -49,-36 -70,-53 -70,-59 -113,-119 -113,-238l0 -110c0,-16 13,-28 28,-28 3,0 6,1 8,2l0 0c18,5 40,8 63,8 1,0 1,0 1,0 35,0 67,-7 84,-17l0 0c3,-2 7,-4 10,-4 2,-1 4,-1 6,-1l0 446z"/>
  <path class="fil13" d="M3364 1821c-72,30 -134,74 -175,123 -28,-22 -67,-38 -112,-45l-5 -1 0 27 3 1c45,17 84,46 111,86l5 6 3 -7c40,-74 102,-135 174,-174l2 -1 0 -17 -6 2z"/>
  <path class="fil5" d="M3777 1080l-76 0c-42,0 -73,-35 -70,-77l7 -76c4,-42 41,-77 83,-77l76 0c43,0 74,35 70,77l-6 76c-4,42 -41,77 -84,77z"/>
  <polygon class="fil8" points="3809,927 3792,909 3751,947 3716,909 3696,927 3731,965 3689,1003 3706,1021 3748,983 3783,1021 3802,1003 3767,965 "/>
  <path class="fil27" d="M2074 1737c44,48 86,98 128,148 42,51 82,102 123,153 1,3 1,2 1,2l1 1 1 2 3 3c2,3 6,4 9,5 2,0 4,1 6,0l3 0 2 0c0,0 0,0 1,0 0,0 0,0 2,-1l43 -24c58,-30 116,-60 177,-87l50 62c-49,45 -99,101 -150,142l-39 30c-1,1 -5,4 -8,6 -3,2 -6,4 -9,5 -6,4 -12,7 -19,10 -13,6 -27,9 -42,12 -29,4 -58,1 -86,-9 -14,-5 -28,-12 -40,-20 -6,-4 -12,-9 -18,-14 -3,-2 -5,-5 -8,-8l-7 -6c-45,-47 -90,-95 -135,-143 -44,-48 -87,-96 -129,-147l140 -122z"/>
  <path class="fil27" d="M2550 1977l40 -129 106 52c0,0 -15,95 -92,111l-54 -34z"/>
  <polygon class="fil27" points="2633,1812 2728,1838 2696,1900 2590,1848 "/>
  <path class="fil27" d="M1517 1773c-11,54 -25,109 -40,163 -15,54 -31,108 -47,161l-7 20 -3 10c0,3 -1,3 -1,5 -2,5 -3,10 -4,16 0,11 3,24 10,35 1,2 7,8 11,13l15 16 28 32c19,21 37,42 55,65l-60 69c-25,-14 -49,-29 -73,-44l-35 -24 -18 -11c-6,-5 -10,-7 -20,-15 -33,-28 -57,-68 -66,-111 -5,-22 -6,-45 -3,-68 0,-5 1,-11 2,-16l2 -10 4 -21c9,-55 20,-111 31,-165 12,-55 24,-110 39,-164l180 44z"/>
  <path class="fil27" d="M1475 2304l71 -36 31 120c0,0 -57,22 -101,-6l-1 -78z"/>
  <polygon class="fil27" points="1644,2229 1647,2340 1568,2392 1540,2270 "/>
  <path class="fil13" d="M1877 1202c2,9 7,15 13,14 6,-1 9,-9 7,-18 -2,-8 -8,-14 -13,-13 -6,1 -9,9 -7,17z"/>
  <path class="fil28" d="M1884 1217c0,0 29,45 55,65 -12,17 -39,16 -39,16l-16 -81z"/>
  <path class="fil13" d="M1836 1161l-4 -1c-2,-2 -2,-5 0,-7 19,-21 43,-17 44,-17 2,0 4,3 4,6 -1,2 -3,4 -6,4 -1,0 -19,-3 -34,14l-4 1z"/>
  <path class="fil27" d="M1628 1323c19,79 38,224 -30,276 0,0 27,81 207,81 198,0 95,-52 95,-52 -108,-21 -106,-115 -87,-177l-185 -128z"/>
  <path class="fil13" d="M1577 1614c-12,-22 -25,-47 2,-55 30,-9 220,-25 276,-8 -17,30 12,68 12,68l-290 -5z"/>
  <polygon class="fil27" points="1735,5314 1859,5314 1871,5064 1747,5064 "/>
  <polygon class="fil27" points="945,5280 1071,5287 1148,5040 1022,5033 "/>
  <path class="fil13" d="M1067 5277l-119 -26c-4,-1 -8,1 -10,5l-41 90c-5,9 1,20 11,22 42,8 62,10 115,21 32,7 104,25 149,34 43,10 59,-33 42,-41 -78,-35 -110,-66 -131,-95 -4,-5 -9,-9 -16,-10z"/>
  <path class="fil13" d="M1852 5302l-118 0c-4,0 -8,3 -9,7l-21 96c-2,10 5,20 15,20 43,-1 104,-4 158,-4 63,0 117,4 190,4 44,0 57,-45 38,-49 -84,-19 -153,-21 -227,-66 -7,-5 -16,-8 -26,-8z"/>
  <path class="fil13" d="M1373 1636c-94,45 -119,315 -119,315l232 108c0,0 57,-85 62,-219 5,-140 -79,-250 -175,-204z"/>
  <path class="fil5" d="M2021 1629c0,0 115,130 7,935 -175,0 -494,0 -579,0 -4,-89 52,-522 -34,-940 0,0 99,-20 194,-25 74,-3 181,-6 246,0 85,8 166,30 166,30z"/>
  <path class="fil7" d="M1449 2564l4 0 5 0 5 0 5 0 5 0 6 0 6 0 6 0 7 0 7 0 7 0 7 0 8 0 8 0 8 0 8 0 8 0 9 0 9 0 9 0 9 0 9 0 10 0 9 0 10 0 10 0 10 0 10 0 11 0 10 0 10 0 11 0 10 0 11 0 11 0 10 0 11 0 11 0 11 0 10 0 11 0 11 0 11 0 10 0 11 0 11 0 10 0 11 0 10 0 10 0 11 0 10 0 10 0 10 0 9 0 10 0 10 0 9 0 9 0 9 0 9 0 9 0 8 0 9 0c31,-235 44,-413 46,-546 0,-13 0,-26 0,-38 0,-4 0,-8 0,-13 0,53 -1,113 -5,182 -47,-49 -126,-160 -115,-337l115 61 3 2c-11,-201 -51,-246 -51,-246 0,0 -81,-22 -166,-30 -28,-2 -64,-3 -102,-3l-2 0 -2 0c-49,0 -99,1 -140,3 -95,5 -194,25 -194,25 38,184 48,372 48,531 0,190 -14,339 -14,398 0,4 0,8 0,11z"/>
  <path class="fil29" d="M2074 1967c0,-33 -1,-64 -2,-92l0 0c1,28 2,59 2,92z"/>
  <path class="fil30" d="M2069 2149c-47,-49 -126,-160 -115,-337l115 61 3 2c1,28 2,59 2,92 0,53 -1,113 -5,182z"/>
  <path class="fil16" d="M1865 5193l0 0 0 -1 0 1zm-124 0l0 0 1 -22 0 0 -1 22z"/>
  <polygon class="fil29" points="1865,5193 1741,5193 1742,5171 1866,5171 1865,5192 "/>
  <polygon class="fil16" points="982,5160 982,5160 993,5127 993,5127 "/>
  <polygon class="fil29" points="1108,5167 982,5160 993,5127 1113,5153 "/>
  <path class="fil27" d="M1588 1242c28,104 39,166 103,209 96,65 216,-10 220,-119 3,-99 -43,-252 -154,-273 -110,-21 -197,80 -169,183z"/>
  <path class="fil13" d="M1822 2564c0,0 -122,826 -190,1136 -73,339 -469,1460 -469,1460l-194 -41c0,0 248,-914 310,-1388 25,-185 54,-483 91,-732 35,-241 79,-435 79,-435l373 0z"/>
  <polygon class="fil5" points="1209,5096 1173,5166 955,5119 974,5053 "/>
  <polygon class="fil12" points="1173,5166 1113,5153 993,5127 955,5119 974,5053 1209,5096 "/>
  <path class="fil31" d="M1635 3687c0,0 0,0 0,0 14,-68 31,-158 49,-258 -18,100 -35,190 -49,258z"/>
  <path class="fil32" d="M1635 3687c-13,-207 -25,-563 33,-733 7,139 15,298 21,446 -2,10 -3,20 -5,29 -18,100 -35,190 -49,258z"/>
  <path class="fil13" d="M2028 2564c0,0 57,808 45,1138 -12,343 -174,1466 -174,1466l-184 0c0,0 -6,-1103 -14,-1440 -9,-367 -54,-1164 -54,-1164l381 0z"/>
  <polygon class="fil5" points="1934,5095 1924,5171 1701,5171 1695,5103 "/>
  <polygon class="fil12" points="1924,5171 1701,5171 1695,5103 1934,5095 1932,5111 1931,5115 "/>
  <path class="fil13" d="M1954 1781c0,217 115,306 115,306l188 -183c0,0 -64,-110 -152,-211 -108,-125 -151,-52 -151,88z"/>
  <path class="fil29" d="M1809 1468l0 0c0,0 1,-39 46,-52 32,-9 44,-32 49,-45 -14,47 -51,83 -95,97z"/>
  <path class="fil13" d="M1855 1036c39,-49 -21,-51 -21,-51 16,-58 -54,-27 -54,-27 -41,-57 -65,13 -65,13 -43,-49 -51,31 -51,31 -44,-62 -66,27 -66,27 -40,-64 -64,19 -64,19 -83,-29 -44,57 -44,57 -70,2 -14,56 -14,56 -84,0 -10,49 -10,49 -67,44 18,56 18,56 -55,85 39,54 39,54 -38,84 46,47 46,47 -5,82 42,59 65,44 4,17 12,34 27,36 30,4 35,-52 35,-52 0,0 28,22 51,10 23,-11 14,-41 14,-41 0,0 18,14 34,1 9,-8 10,-62 -3,-82l45 -17c0,0 33,-5 18,-49 -15,-44 -2,-79 -2,-79 51,-23 9,-52 9,-52 59,-38 -7,-50 -7,-50z"/>
  <path class="fil27" d="M1764 1246c7,28 25,51 44,65 28,21 49,0 47,-32 -2,-28 -18,-74 -49,-82 -31,-8 -50,18 -42,49z"/>
 </g>
</svg>
